# xmcd CD database file
#
# Track frame offsets:
#	150
#	33081
#	54300
#	68272
#	73500
#	98037
#	117042
#	137083
#	161389
#	182235
#
# Disc length: 2630 seconds
#
# Revision: 1
# Processed by: cddbd v1.5.2PL0 Copyright (c) Steve Scherf et al.
# Submitted via: CDex 1.51
#
DISCID=760a440a
DTITLE=George Duke - A Brazilian Love Affair
DYEAR=1979
DGENRE=Jazz
TTITLE0=GeorgeDuke - ABrazilLoveAffair/Brazilian Love Affair 
TTITLE1=GeorgeDuke - ABrazilLoveAffair/Summer Breezin' 
TTITLE2=GeorgeDuke - ABrazilLoveAffair/Cravo E Canela 
TTITLE3=GeorgeDuke - ABrazilLoveAffair/Alone - 6am 
TTITLE4=GeorgeDuke - ABrazilLoveAffair/Brazilian Sugar 
TTITLE5=GeorgeDuke - ABrazilLoveAffair/Sugar Loaf Mountain 
TTITLE6=GeorgeDuke - ABrazilLoveAffair/Love Reborn 
TTITLE7=GeorgeDuke - ABrazilLoveAffair/Up From The Sea It Arose And Ate Rio In One Swift Bite 
TTITLE8=GeorgeDuke - ABrazilLoveAffair/I Need You Now 
TTITLE9=GeorgeDuke - ABrazilLoveAffair/Ao Que Vai Nascer 
EXTD=YEAR: 1979
EXTT0=
EXTT1=
EXTT2=
EXTT3=
EXTT4=
EXTT5=
EXTT6=
EXTT7=
EXTT8=
EXTT9=
PLAYORDER=
